<svg xmlns="http://www.w3.org/2000/svg" viewBox="0 0 24.25 24.25"><defs><style>.cls-1{fill:#f3f7f2;stroke:#000;stroke-width:0.25px;}.cls-1,.cls-2,.cls-3,.cls-4{stroke-miterlimit:10;}.cls-2{fill:#28cc1f;stroke-width:1.01px;}.cls-2,.cls-4{stroke:#28cc1f;}.cls-3,.cls-4{fill:none;stroke-linecap:round;}.cls-3{stroke:#fff;stroke-width:1.06px;}.cls-4{stroke-width:0.86px;}</style></defs><title>Ресурс 924Svg</title><g id="Слой_2" data-name="Слой 2"><g id="Слой_1-2" data-name="Слой 1"><circle class="cls-1" cx="12.13" cy="12.13" r="12"/><path class="cls-2" d="M16.92,20.81H7.49a.51.51,0,0,1-.53-.4L5.78,7.27a.54.54,0,0,1,.55-.61H18.07a.55.55,0,0,1,.56.61L17.44,20.41A.51.51,0,0,1,16.92,20.81Z"/><line class="cls-3" x1="12.13" y1="8.43" x2="12.13" y2="19.21"/><line class="cls-3" x1="16.23" y1="8.43" x2="15.82" y2="19.21"/><line class="cls-3" x1="8.18" y1="8.43" x2="8.83" y2="19.21"/><line class="cls-4" x1="4.56" y1="5.01" x2="19.69" y2="5.01"/><rect class="cls-4" x="9.11" y="2.94" width="6.38" height="2.08" rx="1.04"/></g></g></svg>